<?xml version="1.0" standalone="no"?>
<!DOCTYPE svg PUBLIC "-//W3C//DTD SVG 20010904//EN"
 "http://www.w3.org/TR/2001/REC-SVG-20010904/DTD/svg10.dtd">
<svg version="1.0" xmlns="http://www.w3.org/2000/svg"
 width="850.000000pt" height="768.000000pt" viewBox="0 0 850.000000 768.000000"
 preserveAspectRatio="xMidYMid meet">

<g transform="translate(0.000000,768.000000) scale(0.100000,-0.100000)"
fill="#000000" stroke="none">
<path d="M5318 5689 c-8 -104 -33 -199 -78 -296 -111 -238 -301 -402 -557
-479 -78 -24 -110 -27 -278 -31 -170 -5 -200 -3 -280 16 -151 36 -350 149
-439 249 -11 12 -25 22 -32 22 -7 0 -28 15 -47 33 -32 30 -41 50 -61 139 -3
15 -17 38 -30 50 -12 13 -29 39 -36 58 -20 53 -33 61 -24 15 14 -80 46 -168
70 -192 13 -13 31 -38 40 -56 56 -108 173 -238 277 -308 l59 -39 497 0 497 0
49 31 c66 42 177 150 231 225 58 81 109 191 134 289 24 93 37 264 23 315 -9
32 -10 29 -15 -41z"/>
<path d="M2610 4891 c0 -6 4 -13 10 -16 6 -3 7 1 4 9 -7 18 -14 21 -14 7z"/>
<path d="M2304 3306 l-34 -34 0 -326 0 -326 29 -32 29 -33 337 0 337 0 29 33
29 32 0 326 0 326 -34 34 -34 34 -327 0 -327 0 -34 -34z m554 -368 l-3 -33
-197 -3 -198 -2 0 35 0 35 201 0 200 0 -3 -32z"/>
</g>
</svg>
